<?xml version="1.0" standalone="no"?>
<!DOCTYPE svg PUBLIC "-//W3C//DTD SVG 20010904//EN"
 "http://www.w3.org/TR/2001/REC-SVG-20010904/DTD/svg10.dtd">
<svg version="1.0" xmlns="http://www.w3.org/2000/svg"
 width="600.000000pt" height="411.000000pt" viewBox="0 0 600.000000 411.000000"
 preserveAspectRatio="xMidYMid meet">

<g transform="translate(0.000000,411.000000) scale(0.100000,-0.100000)"
fill="#000000" stroke="none">
<path d="M2670 3667 c-118 -27 -226 -105 -282 -204 -16 -29 -31 -53 -33 -53
-1 0 -27 11 -56 24 -287 126 -578 -17 -643 -316 -6 -26 -10 -28 -55 -28 -59 0
-154 -28 -214 -64 -77 -45 -159 -151 -190 -248 -4 -10 -25 -20 -58 -27 -216
-47 -364 -267 -330 -489 6 -38 14 -80 19 -92 6 -15 0 -38 -21 -79 -18 -36 -31
-82 -34 -119 l-6 -60 -57 -11 c-66 -13 -137 -55 -169 -99 -47 -66 -62 -119
-60 -200 2 -65 -1 -84 -21 -122 -50 -95 -25 -247 57 -340 19 -22 35 -55 42
-88 23 -107 87 -190 178 -232 47 -21 51 -25 57 -66 8 -62 40 -120 96 -174 95
-93 273 -160 385 -145 28 3 928 157 2000 341 1515 260 1961 340 2000 358 56
26 115 82 150 141 56 95 70 256 36 400 l-20 80 41 39 c58 56 83 116 82 201 0
85 -24 144 -83 208 -40 43 -41 46 -41 114 0 123 -74 233 -194 289 -28 13 -58
24 -67 24 -12 0 -18 20 -27 88 -27 201 -169 376 -358 438 -64 21 -208 26 -276
10 -31 -7 -38 -5 -38 7 0 34 -73 156 -124 207 -129 130 -299 185 -466 149 -50
-11 -51 -11 -92 26 -56 51 -169 102 -254 115 -130 20 -279 -22 -368 -106 -27
-24 -44 -34 -52 -28 -7 5 -37 26 -67 47 -109 77 -268 111 -387 84z m264 -135
c43 -20 86 -51 120 -86 66 -67 88 -75 118 -43 13 13 41 43 63 67 84 91 228
123 355 80 72 -24 104 -44 172 -107 53 -48 56 -49 121 -27 33 11 72 15 130 13
68 -3 94 -9 148 -36 80 -40 156 -114 192 -186 28 -58 50 -137 37 -137 -4 0
-59 24 -121 54 -736 352 -1634 278 -2259 -185 -143 -105 -275 -234 -362 -352
-7 -9 -40 -24 -73 -32 -33 -9 -70 -23 -83 -31 -18 -12 -34 -13 -85 -4 -34 5
-71 9 -81 7 -25 -3 -34 27 -35 120 -2 139 69 253 191 308 52 23 78 29 148 30
47 1 90 3 97 3 14 2 29 49 37 116 8 63 50 139 104 187 115 101 304 107 442 14
83 -56 111 -48 140 40 23 69 77 139 136 176 60 37 113 49 199 46 66 -3 94 -9
149 -35z m637 -318 c618 -75 1207 -441 1533 -951 159 -250 288 -626 272 -793
-12 -118 -78 -221 -162 -250 -16 -5 -906 -161 -1979 -346 -2187 -377 -2036
-356 -2169 -291 -85 43 -149 106 -167 166 -7 23 -10 44 -6 47 3 3 26 -8 51
-25 85 -59 187 -81 283 -61 116 24 173 72 193 163 11 45 9 67 -9 157 -35 175
-44 284 -38 450 33 894 641 1568 1557 1726 199 34 409 37 641 8z m-2171 -806
c55 -13 99 -11 118 5 19 15 19 14 -50 -124 -105 -211 -174 -458 -198 -704 -5
-60 -10 -119 -10 -130 0 -15 -3 -16 -12 -7 -7 7 -27 12 -45 12 -93 0 -179 86
-197 196 -5 29 -20 54 -56 92 -49 52 -80 122 -80 182 0 43 27 123 55 160 29
39 99 90 125 90 18 0 70 50 70 67 0 18 57 90 95 119 20 15 57 33 83 40 58 16
49 15 102 2z"/>
<path d="M4166 2278 c-23 -6 -57 -28 -82 -53 -89 -89 -84 -224 11 -302 137
-113 338 -19 338 157 0 138 -131 236 -267 198z m22 -76 c16 -21 15 -43 -4 -70
-19 -28 -57 -29 -84 -2 -27 27 -25 46 5 76 27 27 59 26 83 -4z"/>
<path d="M3477 1975 c-8 -8 -25 -30 -37 -50 -34 -55 -102 -90 -176 -90 -49 0
-73 6 -124 33 -72 37 -100 40 -123 14 -30 -33 -21 -69 24 -102 95 -68 238 -92
338 -56 89 32 201 147 201 206 0 50 -68 81 -103 45z"/>
<path d="M2225 1965 c-124 -67 -158 -216 -73 -320 81 -98 230 -99 315 -2 81
92 60 236 -44 307 -46 32 -152 39 -198 15z m39 -61 c36 -35 9 -94 -43 -94 -35
0 -51 17 -51 55 0 17 5 36 12 43 17 17 64 15 82 -4z"/>
<path d="M4735 1905 c-57 -56 -11 -155 73 -155 53 0 97 47 88 94 -14 75 -111
112 -161 61z"/>
<path d="M4970 1735 c-36 -38 -33 -90 8 -126 64 -57 152 -24 152 56 0 82 -106
128 -160 70z"/>
<path d="M4610 1682 c-42 -42 -41 -83 4 -128 45 -45 86 -46 128 -4 26 27 30
36 25 67 -8 47 -43 82 -90 90 -31 5 -40 1 -67 -25z"/>
<path d="M4850 1547 c-80 -41 -51 -158 43 -174 31 -5 40 -1 67 25 39 39 40 81
3 122 -32 35 -77 46 -113 27z"/>
<path d="M1883 1408 c-36 -39 -34 -89 6 -129 58 -58 151 -23 151 56 0 79 -106
128 -157 73z"/>
<path d="M2134 1276 c-77 -34 -55 -155 31 -172 56 -10 104 27 105 81 0 40 -24
74 -66 91 -39 16 -32 16 -70 0z"/>
<path d="M1774 1206 c-65 -28 -62 -126 5 -160 44 -23 69 -20 102 13 50 50 33
118 -37 147 -39 16 -32 16 -70 0z"/>
<path d="M1986 1039 c-21 -16 -26 -29 -26 -64 0 -36 5 -48 31 -69 40 -34 91
-35 124 -1 43 42 31 111 -25 140 -40 21 -72 19 -104 -6z"/>
</g>
</svg>
